<svg id="レイヤー_1" data-name="レイヤー 1" xmlns="http://www.w3.org/2000/svg" viewBox="0 0 166.83229 188.06679"><defs><style>.cls-1{fill:#e44d26;}.cls-2,.cls-3{fill:#1572b6;}.cls-3{stroke:#5e5e5e;stroke-miterlimit:10;stroke-width:2px;}</style></defs><polygon class="cls-1" points="55.65 125.157 55.928 125.08 83.854 93.539 55.717 101.272 55.717 101.274 55.683 101.292 27.506 93.869 25.593 72.663 39.408 72.663 40.387 83.582 55.674 87.663 55.717 87.663 55.717 87.117 71.072 83.242 72.676 65.663 24.978 65.663 21.595 27.546 21.266 23.663 90.205 23.663 89.875 27.202 89.248 34.374 88.972 37.663 36.307 37.663 37.564 51.663 87.72 51.663 87.384 55.134 84.151 91.253 83.919 93.466 104.468 70.256 110.685 0.663 0.749 0.663 10.754 112.756 55.65 125.157"/><polygon class="cls-2" points="111.27 148.476 111.271 148.474 111.27 148.474 111.27 148.476"/><polygon class="cls-2" points="91.644 84.74 145.684 84.74 145.356 88.572 142.035 125.887 142.045 126.088 142.031 126.552 142.031 126.548 139.671 152.638 139.411 154.956 111.27 162.74 111.27 162.741 111.248 162.76 83.156 154.933 81.254 133.361 95.03 133.361 96.007 144.33 111.274 148.468 111.271 148.474 126.594 144.278 128.213 126.416 96.18 126.416 95.905 123.396 95.279 116.322 94.95 112.524 129.431 112.524 130.685 98.632 79.345 98.632 61.44 118.855 66.434 174.921 111.204 187.404 156.098 174.875 166.084 62.91 110.972 62.91 91.644 84.74"/><line class="cls-3" x1="0.74872" y1="187.4039" x2="166.08357" y2="0.66289"/></svg>