<svg id="レイヤー_1" data-name="レイヤー 1" xmlns="http://www.w3.org/2000/svg" viewBox="0 0 2060 782"><defs><style>.cls-1{fill:#eef3f0;}.cls-2{fill:#fff;}.cls-3{font-size:34.79612px;fill:#333;font-family:rounded-mplus-1c-regular, "Rounded M+ 1c";letter-spacing:0.43999em;}.cls-4{letter-spacing:-0.05999em;}.cls-5{letter-spacing:-0.06em;}</style></defs><rect class="cls-1" x="6" y="2.54937" width="2048" height="777.48148"/><path class="cls-2" d="M1155.15556,565.74937l-34.13334-17.06666C1096.69781,368.88178,973.80624,197.72583,770.12051,114.87,564.38147,31.1789,323.90312,66.58958,146.762,166.942,324.34125,401.99792,266.97246,555.76332,472.7115,639.45438c200.85718,81.70529,460.10263,22.36632,636.93294-73.705l41.71852,5.68889Z"/><text class="cls-3" transform="translate(267.45264 236.76074)">言葉では語りつくせない<tspan x="39.95654" y="75.85205">気持ちや願いを</tspan><tspan class="cls-4" x="390.69971" y="75.85205">、</tspan><tspan x="72.79395" y="151.70361">代わりに形にする</tspan><tspan class="cls-5" x="473.64355" y="151.70361">。</tspan><tspan x="104.35889" y="227.55566">そのようなデザインが</tspan><tspan x="150.14502" y="303.40771">出来るようになりたいです</tspan><tspan class="cls-5" x="751.41943" y="303.40771">。</tspan></text><path class="cls-2" d="M1130.5037,563.85308l28.34.64712c13.82686-102.20524,81.80529-204.09177,197.5875-251.19,116.94938-47.573,253.64583-27.44428,354.33916,29.59963-100.94238,133.61411-68.33192,221.01983-185.28131,268.5928-114.17436,46.4442-259.28161,14.71666-359.79825-39.8937l-27.60186-2.067Z"/><path class="cls-2" d="M1123.61332,780.15175l-9.48984.05358-9.48983.05358,19.95-66.908a305.49154,305.49154,0,0,0,12.73083-88.50347l-.25789-63.11763,9.3683,1.46066,9.36829,1.46067,0,.0001a1679.92876,1679.92876,0,0,1-30.7444,208.73495Z"/></svg>