<svg id="レイヤー_1" data-name="レイヤー 1" xmlns="http://www.w3.org/2000/svg" viewBox="0 0 769 410"><defs><style>.cls-1{fill:#eef3f0;}.cls-2{fill:#fff;}.cls-3{font-size:14.04082px;fill:#434343;font-family:rounded-mplus-1c-regular, "Rounded M+ 1c";letter-spacing:0.43998em;}.cls-4{letter-spacing:-0.06002em;}</style></defs><rect class="cls-1" width="769" height="410"/><path class="cls-2" d="M495.40808,304.30815l-15.79592-7.898C468.35552,213.2035,411.48484,133.99745,317.225,95.65414,222.01485,56.92433,110.72839,73.31138,28.75256,119.7516c82.17859,108.77709,55.63,179.93529,150.84006,218.6651,92.95092,37.81086,212.92225,10.35049,294.75423-34.10855l19.30613,2.63266Z"/><text class="cls-3" transform="translate(102.69824 151.1748)">言葉では語りつくせない<tspan x="17.76172" y="35.10205">気持ちや願いを</tspan><tspan class="cls-4" x="159.29492" y="35.10205">、</tspan><tspan x="32.62012" y="70.2041">代わりに形にする</tspan><tspan class="cls-4" x="194.37207" y="70.2041">。</tspan><tspan x="47.57715" y="105.30566">そのようなものづくりが</tspan><tspan x="73.13086" y="140.4082">出来るようになりたいです</tspan><tspan class="cls-4" x="315.75879" y="140.4082">。</tspan></text><path class="cls-2" d="M473,298.14842l13.67507.31226c6.672-49.31779,39.47406-98.4818,95.34324-121.20842C638.4507,154.29654,704.41177,164.00938,753,191.53516,704.29159,256.0089,720.02734,298.18537,663.595,321.14109c-55.09333,22.411-125.11292,7.10132-173.6159-19.25019l-13.31892-.99738Z"/><path class="cls-2" d="M469.56479,410.248l-5.0046.02953-5.00461.02954,10.52966-35.342a161.61949,161.61949,0,0,0,6.72531-46.74735l-.12778-33.33738,4.94031.77027,4.94031.77027v.00006A888.77381,888.77381,0,0,1,470.3227,406.67438Z"/></svg>